<svg xmlns="http://www.w3.org/2000/svg" viewBox="0 0 500 500"><g data-name="08-Butterfly" transform="matrix(5.31477 0 0 5.31477 100.233 100.669)"><path d="M11.94 20a1.884 1.884 0 0 0-1.73 2.73l.12.23A1.919 1.919 0 0 0 12.06 24H16l-2.5-3.25a1.972 1.972 0 0 0-1.55-.75ZM13 18s-3.12-6-5.2-6 0 6 5.2 6Zm7 9c-2 0-3.89.29-5 2a4.644 4.644 0 0 0 2.62 1.69L15 32h-4a4 4 0 0 1-4-4v-3.59A3.415 3.415 0 0 0 6 22a3.415 3.415 0 0 1-1-2.41v-.88a3.4 3.4 0 0 0-1.37-2.73L2.33 15A3.339 3.339 0 0 1 1 12.32v-.06A3.261 3.261 0 0 1 4.26 9H6c13.36 0 19.3 10.88 21.65 17.33l-2.75.4c-.67-1.7-4.46-10.82-9.9-11.73 0 0-.5 3.34 3 8a9.458 9.458 0 0 0 7 4Z" style="fill:#b26a6f"/><path d="M15 48v.94a2 2 0 0 0 2.89 1.84A2.064 2.064 0 0 0 19 48.94V43s-4 1.91-4 5Zm1.88-11.97a2.1 2.1 0 0 0-1.5 1.5l-.26.83a1.935 1.935 0 0 0 1.18 2.62 1.942 1.942 0 0 0 .24.02 1.844 1.844 0 0 0 1.5-.92L21 35Zm8.02-9.3 2.75-.4A31.164 31.164 0 0 1 29 31v5c0 3.56-1.47 9.09-3 13a14.244 14.244 0 0 1-3.9 5.51A9.332 9.332 0 0 1 16.12 57 5.117 5.117 0 0 1 11 51.88v-3.76a5.116 5.116 0 0 0-1.5-3.62A5.116 5.116 0 0 1 8 40.88V38c0-3 7-6 7-6l2.62-1.31A8.487 8.487 0 0 0 20 31c3 0 5-4 5-4s-.04-.1-.1-.27Zm-3.71 15.4.34.75a1.74 1.74 0 0 0 2.65.78 2.1 2.1 0 0 0 .82-1.69 2.825 2.825 0 0 0-.02-.29L24 36l-2.6 3.95a2.233 2.233 0 0 0-.21 2.18Z" style="fill:#995458"/><path d="M38.039 7.52A3.861 3.861 0 0 0 35.5 11v1.309c1.034-.4 3-1.4 3-3.309 0-1-.272-1.39-.461-1.48Zm-12.087-.004c-.169.08-.452.46-.452 1.484 0 1.9 1.969 2.911 3 3.309V11a3.868 3.868 0 0 0-2.548-3.484Z" style="fill:#3f2854"/><path d="M38 6.5a.5.5 0 0 0-.158.026A4.889 4.889 0 0 0 34.5 11c0 .548 0 1.236-.01 1.991-.093 5.277-.713 8.525-1.844 9.655a.5.5 0 0 0-.136.4 2.972 2.972 0 0 1 .854.29c1.3-1.316 2-4.575 2.119-9.963C36.537 13.034 39.5 11.815 39.5 9c0-2.472-1.439-2.5-1.5-2.5Zm-2.5 5.809V11a3.861 3.861 0 0 1 2.539-3.48c.189.09.461.475.461 1.48 0 1.9-1.969 2.911-3 3.309Zm-4.146 10.337c-1.131-1.13-1.751-4.378-1.844-9.652-.01-.758-.01-1.446-.01-1.994a4.889 4.889 0 0 0-3.342-4.474A.5.5 0 0 0 26 6.5c-.061 0-1.5.028-1.5 2.5 0 2.815 2.963 4.034 4.017 4.378.123 5.387.817 8.647 2.119 9.963a2.972 2.972 0 0 1 .854-.29.5.5 0 0 0-.136-.405ZM25.5 9c0-1.024.283-1.4.452-1.484A3.868 3.868 0 0 1 28.5 11v1.309c-1.031-.398-3-1.409-3-3.309Z" style="fill:#733236"/><circle cx="32" cy="26" r="3" style="fill:#330606"/><ellipse cx="32" cy="36" rx="3" ry="7" style="fill:#330606"/><path d="M19 43v5.94a2.064 2.064 0 0 1-1.11 1.84A2 2 0 0 1 15 48.94V48c0-3.09 4-5 4-5Z" style="fill:#e09696"/><path d="m21 35-2.96 5.08a1.844 1.844 0 0 1-1.5.92 1.942 1.942 0 0 1-.24-.02 1.935 1.935 0 0 1-1.18-2.62l.26-.83a2.1 2.1 0 0 1 1.5-1.5Z" style="fill:#ffd1d1"/><path d="M24.98 41.68a2.825 2.825 0 0 1 .02.29 2.1 2.1 0 0 1-.82 1.69 1.74 1.74 0 0 1-2.65-.78l-.34-.75a2.233 2.233 0 0 1 .21-2.18L24 36ZM49 48v.94a2 2 0 0 1-2.89 1.84A2.064 2.064 0 0 1 45 48.94V43s4 1.91 4 5Zm-6.4-8.05a2.233 2.233 0 0 1 .21 2.18l-.34.75a1.74 1.74 0 0 1-2.65.78 2.1 2.1 0 0 1-.82-1.69 2.825 2.825 0 0 1 .02-.29L40 36Z" style="fill:#e09696"/><path d="M48.88 38.36A1.714 1.714 0 0 1 47.46 41a1.844 1.844 0 0 1-1.5-.92L43 35l4.12 1.03a2.1 2.1 0 0 1 1.5 1.5ZM56.2 12c2.08 0 0 6-5.2 6 0 0 3.12-6 5.2-6Z" style="fill:#ffd1d1"/><path d="M52.06 20a1.884 1.884 0 0 1 1.73 2.73l-.12.23A1.919 1.919 0 0 1 51.94 24H48l2.5-3.25a1.972 1.972 0 0 1 1.55-.75Z" style="fill:#e09696"/><path d="M49 15s.5 3.34-3 8a9.458 9.458 0 0 1-7 4s.04-.1.1-.27c.67-1.7 4.46-10.82 9.9-11.73Z" style="fill:#ffd1d1"/><path d="M49 29a4.644 4.644 0 0 1-2.62 1.69A8.487 8.487 0 0 1 44 31c-3 0-5-4-5-4h5c2 0 3.89.29 5 2Z" style="fill:#e09696"/><path d="M7.8 12c2.08 0 5.2 6 5.2 6-5.2 0-7.28-6-5.2-6Z" style="fill:#ffd1d1"/><path d="M13.5 20.75 16 24h-3.94a1.919 1.919 0 0 1-1.73-1.04l-.12-.23A1.884 1.884 0 0 1 11.94 20h.01a1.972 1.972 0 0 1 1.55.75ZM25 27s-2 4-5 4a7.116 7.116 0 0 1-3.92-1A3.519 3.519 0 0 1 15 29c1.11-1.71 3-2 5-2Z" style="fill:#e09696"/><path d="M25 27a9.458 9.458 0 0 1-7-4c-3.5-4.66-3-8-3-8 3 .5 5.5 3.5 7.25 6.38A35.345 35.345 0 0 1 25 27Z" style="fill:#ffd1d1"/><path d="M52.05 20a1.972 1.972 0 0 0-1.55.75L48 24h3.94a1.919 1.919 0 0 0 1.73-1.04l.12-.23A1.884 1.884 0 0 0 52.06 20Zm4.15-8c-2.08 0-5.2 6-5.2 6 5.2 0 7.28-6 5.2-6ZM39 27a9.458 9.458 0 0 0 7-4c3.5-4.66 3-8 3-8-5.44.91-9.23 10.03-9.9 11.73l-2.75-.4C38.7 19.88 44.64 9 58 9h1.74A3.261 3.261 0 0 1 63 12.26v.06A3.339 3.339 0 0 1 61.67 15l-1.3.98A3.4 3.4 0 0 0 59 18.71v.88A3.415 3.415 0 0 1 58 22a3.415 3.415 0 0 0-1 2.41V28a4 4 0 0 1-4 4h-4l-2.62-1.31A4.644 4.644 0 0 0 49 29c-1.11-1.71-3-2-5-2Z" style="fill:#b26a6f"/><path d="M45 43v5.94a2.064 2.064 0 0 0 1.11 1.84A2 2 0 0 0 49 48.94V48c0-3.09-4-5-4-5Zm-2-8 2.96 5.08a1.844 1.844 0 0 0 1.5.92 1.714 1.714 0 0 0 1.42-2.64l-.26-.83a2.1 2.1 0 0 0-1.5-1.5Zm-4-8s2 4 5 4a8.487 8.487 0 0 0 2.38-.31L49 32s7 3 7 6v2.88a5.116 5.116 0 0 1-1.5 3.62 5.116 5.116 0 0 0-1.5 3.62v3.76A5.117 5.117 0 0 1 47.88 57a9.332 9.332 0 0 1-5.98-2.49A14.244 14.244 0 0 1 38 49c-1.53-3.91-3-9.44-3-13v-5a31.164 31.164 0 0 1 1.35-4.67l2.75.4c-.06.17-.1.27-.1.27Zm3.6 12.95L40 36l-.98 5.68a2.825 2.825 0 0 0-.02.29 2.1 2.1 0 0 0 .82 1.69 1.74 1.74 0 0 0 2.65-.78l.34-.75a2.233 2.233 0 0 0-.21-2.18Z" style="fill:#995458"/><path d="M39 9c0 3-4 4-4 4h-.01c.01-.76.01-1.45.01-2 0-3 3-4 3-4s1 0 1 2Zm-10 4s-4-1-4-4c0-2 1-2 1-2s3 1 3 4c0 .55 0 1.24.01 2Z" style="fill:#b26a6f"/><path d="M32.026 24.391a.749.749 0 0 0 .108.607 2.152 2.152 0 0 0 .405.425c.363.328.744.756 1.23.5.32-.17.265-.751.09-1.034a2.654 2.654 0 0 0-.923-.8.62.62 0 0 0-.91.302Z" style="fill:#995458"/><path d="M24.545 44.886a9.5 9.5 0 0 0-2.3 1.39c-.949.948-1.175 2.372-1.53 3.666s-1.052 2.7-2.351 3.029a3.717 3.717 0 0 1-1.605-.029 3.366 3.366 0 0 1-2.034-.988 2.848 2.848 0 0 1-.531-1.189 17.275 17.275 0 0 1-.16-3.534A4.964 4.964 0 0 0 13 43.922c-.587-.641-1.45-1.024-1.9-1.765a3.365 3.365 0 0 1-.154-2.626 8.2 8.2 0 0 0 .544-2.506 2.776 2.776 0 0 0-1.179-2.116c-.047-.033-.1-.05-.152-.08C8.956 35.786 8 36.892 8 38v2.88a5.116 5.116 0 0 0 1.5 3.62 5.116 5.116 0 0 1 1.5 3.62v3.76A5.117 5.117 0 0 0 16.12 57a9.332 9.332 0 0 0 5.98-2.49A14.244 14.244 0 0 0 26 49c1.53-3.91 3-9.44 3-13v-3.767c-.162 3.923-1.808 11.208-4.455 12.653Z" style="fill:#733236"/><path d="M9.378 30.293a2.6 2.6 0 0 1-.587-1.379 5.226 5.226 0 0 1 .535-1.99 4.676 4.676 0 0 0-.242-3.832c-.8-1.389-2.462-2.244-2.9-3.787-.263-.923-.028-1.932-.292-2.855a6.709 6.709 0 0 0-1.659-2.392A3.562 3.562 0 0 1 3.1 11.444a2.554 2.554 0 0 1 1.014-1.9C5 9 4.973 9.155 5 9h-.74A3.261 3.261 0 0 0 1 12.26v.06A3.339 3.339 0 0 0 2.33 15l1.3.98A3.4 3.4 0 0 1 5 18.71v.88A3.415 3.415 0 0 0 6 22a3.415 3.415 0 0 1 1 2.41V28a4 4 0 0 0 4 4h4c-2 0-4.515-.264-5.622-1.707Z" style="fill:#995458"/><path d="M39.455 44.886a9.5 9.5 0 0 1 2.3 1.39c.949.948 1.175 2.372 1.53 3.666s1.052 2.7 2.351 3.029a3.717 3.717 0 0 0 1.6-.029 3.366 3.366 0 0 0 2.034-.988 2.848 2.848 0 0 0 .531-1.189 17.275 17.275 0 0 0 .16-3.534A4.964 4.964 0 0 1 51 43.922c.587-.641 1.45-1.024 1.9-1.765a3.365 3.365 0 0 0 .154-2.626 8.2 8.2 0 0 1-.544-2.506 2.776 2.776 0 0 1 1.179-2.116c.047-.033.1-.05.152-.08C55.044 35.786 56 36.892 56 38v2.88a5.116 5.116 0 0 1-1.5 3.62 5.116 5.116 0 0 0-1.5 3.62v3.76A5.117 5.117 0 0 1 47.88 57a9.332 9.332 0 0 1-5.98-2.49A14.244 14.244 0 0 1 38 49c-1.53-3.91-3-9.44-3-13v-3.767c.162 3.923 1.808 11.208 4.455 12.653Z" style="fill:#733236"/><path d="M54.622 30.293a2.6 2.6 0 0 0 .587-1.379 5.226 5.226 0 0 0-.535-1.99 4.676 4.676 0 0 1 .242-3.832c.8-1.389 2.462-2.244 2.9-3.787.263-.923.028-1.932.292-2.855a6.709 6.709 0 0 1 1.659-2.392 3.562 3.562 0 0 0 1.133-2.614 2.554 2.554 0 0 0-1.014-1.9C59 9 59.027 9.155 59 9h.74A3.261 3.261 0 0 1 63 12.26v.06A3.339 3.339 0 0 1 61.67 15l-1.3.98A3.4 3.4 0 0 0 59 18.71v.88A3.415 3.415 0 0 1 58 22a3.415 3.415 0 0 0-1 2.41V28a4 4 0 0 1-4 4h-4c2 0 4.515-.264 5.622-1.707Z" style="fill:#995458"/></g></svg>